<svg xmlns="http://www.w3.org/2000/svg" viewBox="-0.000240583 -0.000236863 48 48">
  <path
      d="m 15.0864 1.656 a 5.6496 5.6496 90 0 1 5.4576 -1.464 l 18.3504 4.9152 a 5.6496 5.6496 90 0 1 3.9936 3.9936 l 4.9152 18.3504 a 5.6496 5.6496 90 0 1 -1.464 5.4576 l -13.4256 13.4352 a 5.6496 5.6496 90 0 1 -5.4576 1.464 l -18.3504 -4.9152 a 5.6496 5.6496 90 0 1 -3.9936 -3.9936 l -4.92 -18.3552 a 5.6496 5.6496 90 0 1 1.464 -5.4576 l 13.4304 -13.4304 z"
      fill="url(#avatar_hept_underlay_fill)" />
  <linearGradient id="avatar_hept_underlay_fill" x1="0" y1="0" x2="50" y2="50" gradientUnits="userSpaceOnUse">
    <stop stop-color="#2EE6A8"></stop>
    <stop offset="0.34375" stop-color="#3399FF"></stop>
    <stop offset="0.692708" stop-color="#9933FF"></stop>
    <stop offset="1" stop-color="#FF3399"></stop>
  </linearGradient>
</svg>
